<?xml version="1.0" encoding="UTF-8" standalone="no"?>
<!-- Created with Inkscape (http://www.inkscape.org/) -->

<svg
   xmlns:dc="http://purl.org/dc/elements/1.1/"
   xmlns:cc="http://creativecommons.org/ns#"
   xmlns:rdf="http://www.w3.org/1999/02/22-rdf-syntax-ns#"
   xmlns:svg="http://www.w3.org/2000/svg"
   xmlns="http://www.w3.org/2000/svg"
   xmlns:xlink="http://www.w3.org/1999/xlink"
   xmlns:sodipodi="http://sodipodi.sourceforge.net/DTD/sodipodi-0.dtd"
   xmlns:inkscape="http://www.inkscape.org/namespaces/inkscape"
   width="64"
   height="64"
   id="svg2"
   version="1.1"
   inkscape:version="0.48pre1 r9509"
   sodipodi:docname="backstage-logo.svg"
   inkscape:export-filename="C:\Dokumente und Einstellungen\Max\Desktop\backstage-logo.png"
   inkscape:export-xdpi="90"
   inkscape:export-ydpi="90">
  <defs
     id="defs4">
    <linearGradient
       id="linearGradient4040">
      <stop
         style="stop-color:#ff0000;stop-opacity:1;"
         offset="0"
         id="stop4042" />
      <stop
         style="stop-color:#ff0000;stop-opacity:0;"
         offset="1"
         id="stop4044" />
    </linearGradient>
    <linearGradient
       id="linearGradient3855">
      <stop
         style="stop-color:#dfef35;stop-opacity:1;"
         offset="0"
         id="stop3857" />
      <stop
         style="stop-color:#387b00;stop-opacity:1;"
         offset="1"
         id="stop3859" />
    </linearGradient>
    <linearGradient
       id="linearGradient3836">
      <stop
         style="stop-color:#8cda16;stop-opacity:1;"
         offset="0"
         id="stop3838" />
      <stop
         style="stop-color:#1981ca;stop-opacity:1;"
         offset="1"
         id="stop3840" />
    </linearGradient>
    <linearGradient
       inkscape:collect="always"
       xlink:href="#linearGradient3855-4"
       id="linearGradient3863-7"
       x1="3.870707"
       y1="992.69348"
       x2="60"
       y2="1048.0309"
       gradientUnits="userSpaceOnUse" />
    <linearGradient
       id="linearGradient3855-4">
      <stop
         style="stop-color:#3593ef;stop-opacity:1;"
         offset="0"
         id="stop3857-0" />
      <stop
         style="stop-color:#003c7b;stop-opacity:1;"
         offset="1"
         id="stop3859-9" />
    </linearGradient>
    <linearGradient
       inkscape:collect="always"
       xlink:href="#linearGradient3855-8-4"
       id="linearGradient3822"
       gradientUnits="userSpaceOnUse"
       gradientTransform="matrix(7.0714285,0,0,4.0357136,-26.285718,-3183.3809)"
       x1="4.129293"
       y1="992.88342"
       x2="59.870708"
       y2="1048.9966" />
    <linearGradient
       id="linearGradient3855-8-4">
      <stop
         style="stop-color:#dfef35;stop-opacity:1;"
         offset="0"
         id="stop3857-2-0" />
      <stop
         style="stop-color:#387b00;stop-opacity:1;"
         offset="1"
         id="stop3859-7-9" />
    </linearGradient>
    <linearGradient
       y2="1048.9966"
       x2="59.870708"
       y1="992.88342"
       x1="4.129293"
       gradientTransform="matrix(7.0714285,0,0,4.0357136,75.354685,-3096.696)"
       gradientUnits="userSpaceOnUse"
       id="linearGradient3253"
       xlink:href="#linearGradient3855-8-4"
       inkscape:collect="always" />
  </defs>
  <sodipodi:namedview
     id="base"
     pagecolor="#ffffff"
     bordercolor="#666666"
     borderopacity="1.0"
     inkscape:pageopacity="0.0"
     inkscape:pageshadow="2"
     inkscape:zoom="2.7345145"
     inkscape:cx="43.101523"
     inkscape:cy="35.900818"
     inkscape:document-units="px"
     inkscape:current-layer="layer1"
     showgrid="false"
     showguides="true"
     inkscape:guide-bbox="true"
     inkscape:window-width="1024"
     inkscape:window-height="712"
     inkscape:window-x="-4"
     inkscape:window-y="-4"
     inkscape:window-maximized="1" />
  <metadata
     id="metadata7">
    <rdf:RDF>
      <cc:Work
         rdf:about="">
        <dc:format>image/svg+xml</dc:format>
        <dc:type
           rdf:resource="http://purl.org/dc/dcmitype/StillImage" />
        <dc:title />
      </cc:Work>
    </rdf:RDF>
  </metadata>
  <g
     inkscape:label="Ebene 1"
     inkscape:groupmode="layer"
     id="layer1"
     transform="translate(0,-988.36218)">
    <g
       id="layer1-2"
       transform="matrix(0.0844638,-0.04876519,0.04876519,0.0844638,-12.373533,1002.1482)"
       style="fill:#b0de2c;fill-opacity:1">
      <path
         style="fill:#b0de2c;fill-opacity:1;fill-rule:evenodd;stroke:none"
         id="path2410"
         d="m 56.6875,239.96875 c 31.541747,36.7838 61.14621,78.04118 71.125,126.25 3.16457,17.3042 -0.52258,34.84815 -4.70594,51.48462 -3.1069,18.90828 -3.30743,39.21522 4.48719,56.92163 23.6499,-18.00835 56.05386,-16.37153 83.66246,-10.18389 17.07232,3.98054 35.08349,10.01859 47.05629,23.27764 1.44685,3.70944 -4.25602,4.72422 -6,2.15625 -33.61707,-19.05877 -75.65539,-14.19288 -109.98835,0.40915 -13.60299,5.68854 -26.61899,12.78174 -38.9179,20.90335 30.20135,16.63992 53.22577,46.17599 60.08903,80.1257 6.49743,25.63087 10.49341,54.75273 31.44222,73.15555 7.47778,6.86094 16.02624,12.48549 25.46875,16.3125 18.61606,-37.70994 46.14823,-74.12255 86.34375,-90.09375 17.50074,-7.6106 38.06432,-8.51426 55.625,-0.6875 38.54832,14.16155 65.43844,48.05005 84.5,83.0625 1.96473,1.99935 1.54226,7.95297 5.03125,7.625 23.66274,-10.67684 42.48743,-32.26403 47.71875,-58.03125 7.71627,-29.30437 12.74583,-61.65501 34.3125,-84.46875 9.62724,-10.76382 21.23911,-19.61124 33.71875,-26.96875 -35.00052,-23.25193 -77.86553,-39.51657 -120.45024,-31.87099 -13.84088,2.52846 -26.52448,8.95188 -38.86226,15.55849 8.78557,-18.4113 30.28313,-24.36028 48.37842,-29.73426 27.2118,-6.93433 58.64721,-8.39367 83.24658,6.82801 2.99848,3.2868 4.63575,2.38066 5.33035,-1.97511 8.87514,-25.29314 3.20617,-52.62181 -2.64285,-77.89989 -3.77876,-36.71213 14.32341,-70.8392 33.01256,-101.05796 11.71211,-18.36303 25.05056,-35.65153 39.39369,-52.03579 -91.50258,25.52505 -178.3135,74.92417 -239.09195,148.71956 -13.06034,15.93824 -24.42627,33.09084 -34.8143,50.78044 1.86475,-45.36371 3.2193,-91.9165 19.71875,-134.78125 4.28206,-2.83641 9.20706,3.3935 13.34375,-0.53125 6.03717,-3.03391 6.98441,-13.92249 -0.6875,-15.34375 -8.48126,-1.301 -12.99939,7.91973 -14.68549,14.81479 -12.91441,36.43053 -16.06971,75.4611 -19.11208,113.80908 -0.87358,9.64059 0.15454,19.81968 -2.04618,29.15738 -2.59119,3.08365 -6.62106,-1.08179 -5.47319,-4.24936 -1.69333,-48.60848 -5.32163,-98.17696 -21.90181,-144.15689 -1.54569,-8.31809 -15.38986,-14.25456 -18.21875,-3.90625 -2.27413,9.27302 11.20075,14.88921 16.90625,7.6875 16.69417,40.98497 18.70853,85.87577 20.53125,129.59375 -3.50932,3.63259 -6.43149,-2.33522 -7.4375,-5 C 275.8951,350.79079 202.26251,296.16476 122.05774,262.12451 100.59815,252.93148 78.495321,244.97495 55.875,239.03125 l 0.654931,0.75569 0.157569,0.18181 z"
         inkscape:connector-curvature="0" />
      <path
         style="fill:#b0de2c;fill-opacity:1;fill-rule:evenodd;stroke:none"
         id="path3321"
         d="m 47.09375,233.6875 c 3e-6,1e-5 94.84573,99.08504 76.625,166.96875 -14.09422,52.50987 2.875,78.9375 2.875,78.9375 0,0 18.77818,-22.56608 71.09375,-14.71875 42.42641,6.36397 57.5,23.28125 57.5,23.28125 -1e-5,10e-6 -59.63236,-43.12529 -157.59375,23.25 99.73431,55.0613 34.83542,134.14578 124,173.46875 1.24966,-0.17071 37.69947,-91.52183 113.9375,-97.78125 76.2189,6.27954 112.65675,97.61056 113.90625,97.78125 89.16458,-39.32297 24.26566,-118.40745 124,-173.46875 -97.96139,-66.37529 -157.59374,-23.24999 -157.59375,-23.25 0,0 15.07359,-16.91728 57.5,-23.28125 52.31557,-7.84733 71.09372,14.71875 71.09375,14.71875 0,0 16.96919,-26.42763 2.875,-78.9375 -18.22073,-67.88371 76.62497,-166.96874 76.625,-166.96875 0,0 -187.15996,39.63113 -279.40625,193.59375 0.35149,-11.91632 1.4047,-34.53192 4.75,-62.25 4.58772,-38.01254 14.15626,-59.375 14.15625,-59.375 0,0 8.28847,5.46819 15.5625,-2.84375 9.87045,-11.27886 -4.61101,-24.40071 -15.5625,-14.84375 -12.55182,10.95351 -26.98626,85.96749 -27.5625,154.84375 -0.12284,0.23963 -0.25488,0.47638 -0.375,0.71875 -0.11806,-0.23818 -0.22302,-0.48326 -0.34375,-0.71875 -0.57624,-68.87626 -15.01068,-143.89024 -27.5625,-154.84375 -10.95149,-9.55696 -25.43295,3.56489 -15.5625,14.84375 7.27403,8.31194 15.5625,2.84375 15.5625,2.84375 -10e-6,0 9.56853,21.36246 14.15625,59.375 3.3453,27.71808 4.39851,50.33368 4.75,62.25 C 234.25371,273.31863 47.09375,233.6875 47.09375,233.6875 z m 69.59375,53.375 c 0,-10e-6 56.33897,13.54825 114.90625,57.125 73.53166,54.71093 103.5625,129.96875 103.5625,129.96875 L 335.5,459.1875 l 0.375,14.96875 c 0,0 30.03084,-75.25782 103.5625,-129.96875 58.56728,-43.57675 114.90622,-57.12501 114.90625,-57.125 0,0 -40.95314,68.81394 -23.53125,117.46875 14.00054,39.09994 -1.75002,49.25001 -1.75,49.25 0,0 -94.42041,-24.97722 -143.625,57.21875 71.38169,-39.10893 115.85632,-22.05804 156.1875,-1 0,0 -43.71792,28.23417 -49.59375,70.6875 -7.01859,50.70986 -31.375,62.8125 -31.375,62.8125 0,0 -33.40323,-40.83458 -61.6875,-53.5625 C 372.27824,577.92677 339.52512,572.23613 335.875,571.625 l 0,-0.125 c 0,0 -0.29087,0.0538 -0.34375,0.0625 -0.0602,-0.01 -0.375,-0.0625 -0.375,-0.0625 l 0,0.125 c -3.71397,0.62232 -36.4341,6.31566 -63.09375,18.3125 C 243.77823,602.66542 210.375,643.5 210.375,643.5 c 0,0 -24.35641,-12.10264 -31.375,-62.8125 C 173.12417,538.23417 129.40625,510 129.40625,510 c 40.33115,-21.05804 84.80581,-38.10893 156.1875,1 -49.20459,-82.19597 -143.625,-57.21875 -143.625,-57.21875 -1e-5,10e-6 -15.75054,-10.15006 -1.75,-49.25 C 157.64061,355.87644 116.6875,287.0625 116.6875,287.0625 z"
         inkscape:connector-curvature="0" />
      <path
         style="fill:#b0de2c;fill-opacity:1;fill-rule:evenodd;stroke:none"
         id="path3201"
         d="m 318.9375,440.84375 c 24.70454,47.10511 -3.21876,85.00001 -3.21875,85 0,0 -4.25057,41.33288 19.4375,125.125 23.68807,-83.79212 19.46875,-125.125 19.46875,-125.125 10e-6,10e-6 -27.95454,-37.89489 -3.25,-85 L 335.15625,455.125 318.9375,440.84375 z"
         inkscape:connector-curvature="0" />
      <path
         style="fill:#b0de2c;fill-opacity:1;fill-rule:evenodd;stroke:none"
         id="path3359"
         d="m 144.80064,310.30942 c 111.01577,41.7193 166.17009,140.00714 166.17009,140.00714 0,0 -14.84924,-31.8198 -82.73149,-60.10407 -65.2714,-27.19642 -67.17514,-7.77818 -67.17514,-7.77818 3.06412,-16.97056 -1.64992,-43.84062 -16.26346,-72.12489 z"
         inkscape:connector-curvature="0" />
      <path
         style="fill:#b0de2c;fill-opacity:1;fill-rule:evenodd;stroke:none"
         id="path3377"
         d="m 525.22408,310.30942 c -111.01577,41.7193 -166.17009,140.00714 -166.17009,140.00714 0,0 14.84924,-31.8198 82.73149,-60.10407 65.2714,-27.19642 67.17514,-7.77818 67.17514,-7.77818 -3.06412,-16.97056 1.64992,-43.84062 16.26346,-72.12489 z"
         inkscape:connector-curvature="0" />
      <path
         style="fill:#b0de2c;fill-opacity:1;fill-rule:evenodd;stroke:none"
         id="path3413"
         d="m 156.64988,511.62775 c 57.27565,-28.28428 114.36932,4.80329 114.36932,4.80329 0,0 -34.99837,-9.12997 -63.97235,-0.51471 -18.6624,5.54916 -24.96625,27.0165 -24.96625,27.0165 -5.06413,-12.58841 -13.19933,-24.38393 -25.43072,-31.30508 z"
         inkscape:connector-curvature="0" />
      <path
         style="fill:#b0de2c;fill-opacity:1;fill-rule:evenodd;stroke:none"
         id="path3417"
         d="m 514.0192,511.62775 c -57.27565,-28.28428 -114.36932,4.80329 -114.36932,4.80329 0,0 34.99837,-9.12997 63.97235,-0.51471 18.6624,5.54916 24.96625,27.0165 24.96625,27.0165 5.06413,-12.58841 13.19933,-24.38393 25.43072,-31.30508 z"
         inkscape:connector-curvature="0" />
    </g>
  </g>
</svg>
